<?xml version="1.0" encoding="UTF-8"?>
<!-- Generator: Adobe Illustrator 21.1.0, SVG Export Plug-In . SVG Version: 6.00 Build 0)  -->
<svg version="1.1" id="Layer_1" xmlns="http://www.w3.org/2000/svg" xmlns:xlink="http://www.w3.org/1999/xlink" x="0px" y="0px" viewBox="0 0 974.7 315.1" style="enable-background:new 0 0 974.7 315.1;" xml:space="preserve">
<style type="text/css">
	.st0{fill:#8CC63F;}
	.st1{fill:#FFFFFF;}
</style>
<g>
	<path class="st0" d="M564.6,18.1c0.2,0.1,16.5-16.6,16.4-16.6c-22.9-4.9-52.6,2.1-71.5,26.4c-20.9,27-23.3,64.8-23.9,73.7   c0,0.2-10.1,0-10.1,0L461.9,116h22c0,0-12.2,126-13.2,132.8c-0.9,6.7-6.3,67.4-59.6,49.2c-0.1,0-16.1,14.6-16,14.6   c25.5,9.1,88.2-3,95.5-94.3c5.3-66.5,10.4-102.5,10.4-102.5s33.3-0.1,33.2,0.1c-1.9,3.2-9.2,13.8-9.1,33.6   c0.2,33.2,24.6,53.9,55.5,54c37,0.2,42.3-25.5,43.3-29.8c0,0-2.3-1-2.3-0.9c-2.9,7.5-8.4,21.9-32.5,22.2   c-29.9,0.4-46.3-34.2-41.3-62.4c0-0.2,73.5,0.2,73.5,0c-0.8-42.7-42.2-41.1-49.3-39.8c-0.1,0-0.1,2.8,0,2.8   c27.6-3.9,30.4,26,30.4,31.8c0,0.2-53.9,0.6-53.9,0.3c0.9-6.3,4.3-19.1,10.9-25.1c1.6-1.4-56.9-0.8-56.9-0.8s2.2-23.3,2.9-28.6   C507.9,55.9,509.7-1.2,564.6,18.1L564.6,18.1z"/>
	<path class="st1" d="M3,200.3c1.5-4,4.2-6,8.2-6c1.2,0,2.4,0.2,3.4,0.5s4.1,1.6,9.2,3.9c9.9,4.2,20.2,6.4,31,6.4   c11.7,0,21.9-2.6,30.6-7.9s15.1-12.8,19.5-22.5c3.1-7,4.6-14.3,4.6-21.9c0-11.5-3.4-21.6-10.2-30.2c-6-7.7-15.7-14.8-29.3-21.2   l-17.6-8.5c-17.9-8.5-26.8-19.7-26.8-33.6c0-3.5,0.6-7,1.9-10.5s3.1-6.5,5.3-9.1c5.4-6.3,12.8-9.5,22.1-9.5c6.4,0,12,1.6,16.9,4.7   s9.4,7.9,13.5,14.4c2.2,3.6,4.2,7.5,5.8,11.7s3.6,10.3,5.8,18.2h2.9l-0.9-49.6H96c-1,4.2-3,6.4-5.9,6.4c-1.2,0-2.5-0.2-4-0.7   s-4.3-1.5-8.5-3.2c-5.6-2.3-10-3.9-13.4-4.7c-3.3-0.8-6.9-1.2-10.9-1.2c-12.1,0-22.5,4.1-31.3,12.2c-5,4.6-8.9,10.1-11.7,16.5   S6.1,68,6.1,74.9c0,11.2,3.6,20.8,10.7,28.6c2.6,2.8,6,5.6,10.2,8.4c4.2,2.7,10.3,6.1,18.2,10.1c9,4.6,15.7,8.4,20,11.4   c4.4,3,7.8,6.1,10.2,9.4c2.3,3.2,4.2,7,5.6,11.4s2.1,8.7,2.1,13c0,9.8-3.1,17.9-9.4,24.3c-6.2,6.4-14.1,9.6-23.7,9.6   c-13.7,0-25.1-7-34.2-20.9c-4.8-7.6-9-17.9-12.5-31l-2.9-0.1L0,200.7h3V200.3L3,200.3z"/>
	<path class="st1" d="M195.3,190.2c-5.2,5.1-11.8,7.6-19.8,7.6c-9.6,0-18-3.7-25.2-11.2c-4.6-4.7-8.2-10.7-10.8-17.7   c-2.7-7.1-4-14.3-4-21.7c0-8.1,1.5-16.3,4.4-24.7c1.9-5.5,4.1-10,6.7-13.7c2.5-3.6,5.6-6.6,9.3-9.1c4.1-2.7,8.7-4.1,13.6-4.1   c3.7,0,6.9,1,9.5,2.9c1.3,1,2.3,2.2,3,3.5s1.6,3.8,2.8,7.5c2.6,7.9,6.6,11.9,12,11.9c2.5,0,4.6-0.9,6.4-2.7c1.7-1.8,2.6-4,2.6-6.7   c0-4-2.1-7.7-6.2-11c-6.8-5.4-16.3-8.1-28.3-8.1c-8.7,0-16.8,1.5-24.2,4.6s-13.6,7.5-18.7,13.4c-4.5,5.1-8,11.2-10.6,18.4   c-2.6,7.2-3.9,14.4-3.9,21.7c0,15,4.7,27.4,14,37.2c9.6,10,22.8,15,39.6,15c10.5,0,18.7-2,24.7-5.9s10.4-10.3,13.4-19.1l-2.5-0.9   C200.5,183.2,198,187.5,195.3,190.2L195.3,190.2L195.3,190.2z"/>
	<path class="st1" d="M206.1,99.9c3.7,0.3,6.6,0.9,8.6,1.9s3.7,2.7,5.1,5c1.4,2.2,2.3,4.9,2.7,8.4c0.4,3.4,0.6,9.4,0.6,17.9v30.7   c0,7.3-0.2,12.9-0.6,16.7c-0.4,3.9-1,6.7-1.9,8.6c-1.3,2.9-3.1,4.9-5.2,6.2c-2.2,1.2-5.7,2.1-10.7,2.8v2.6h55.2v-2.6   c-6.2-1.2-10.5-2.9-12.9-5.1c-1.9-1.7-3.2-3.9-3.9-6.5s-1-6.7-1-12.4l-0.1-9.5V92.7l-36,4.5L206.1,99.9L206.1,99.9z"/>
	<path class="st0" d="M412.6,200.8l1.6-51.2l-3-0.3c-1.6,7.7-3.3,14-5.2,18.7c-1.9,4.7-4.3,9-7.2,12.7c-4.3,5.5-9.9,9.6-16.7,12.2   c-6.8,2.6-15.1,3.9-25,3.9c-9.5,0-17.1-1.4-22.8-4.2c-5.7-2.8-10.1-7.2-13-13.2c-1.7-3.4-2.8-7.8-3.4-13.2s-0.9-13.6-0.9-24.7v-72   c0-8.7,0.5-15.2,1.5-19.3c1-4.2,2.9-7.6,5.7-10.4c2.2-2.2,4.8-3.7,7.7-4.7s6.7-1.6,11.2-1.9v-2.9h-79.8v2.9c4.5,0.2,8.2,0.7,11,1.7   c2.9,1,5.5,2.6,7.8,4.7c2.8,2.7,4.8,6.1,5.8,10.3s1.6,10.7,1.6,19.5v92c0,8.5-0.5,14.8-1.4,18.9c-1,4.1-2.7,7.5-5.3,10.2   c-4.6,4.7-11.1,7.1-19.5,7.1v3h149.3L412.6,200.8L412.6,200.8z"/>
	<path class="st0" d="M418.5,99.9c3.7,0.3,6.6,0.9,8.6,1.9s3.7,2.7,5.1,5c1.4,2.2,2.3,4.9,2.7,8.4c0.4,3.4,0.6,9.4,0.6,17.9v30.7   c0,7.3-0.2,12.9-0.6,16.7c-0.4,3.9-1,6.7-1.9,8.6c-1.3,2.9-3.1,4.9-5.2,6.2c-2.2,1.2-5.7,2.1-10.7,2.8v2.6h55.2v-2.6   c-6.2-1.2-10.5-2.9-12.9-5.1c-1.9-1.7-3.2-3.9-3.9-6.5s-1-6.7-1-12.4l-0.1-9.5V92.7l-36,4.5L418.5,99.9L418.5,99.9z"/>
	<path class="st1" d="M762.2,200.8l1.6-51.2l-3-0.3c-1.6,7.7-3.3,14-5.2,18.7s-4.3,9-7.2,12.7c-4.3,5.5-9.9,9.6-16.7,12.2   s-15.1,3.9-25,3.9c-9.5,0-17.1-1.4-22.8-4.2s-10.1-7.2-13-13.2c-1.7-3.4-2.8-7.8-3.4-13.2c-0.6-5.4-0.9-13.6-0.9-24.7v-72   c0-8.7,0.5-15.2,1.5-19.3c1-4.2,2.9-7.6,5.7-10.4c2.2-2.2,4.8-3.7,7.7-4.7s6.7-1.6,11.2-1.9v-2.9h-79.6v2.9c4.5,0.2,8.2,0.7,11,1.7   c2.9,1,5.5,2.6,7.8,4.7c2.8,2.7,4.8,6.1,5.8,10.3s1.6,10.7,1.6,19.5v92c0,8.5-0.5,14.8-1.4,18.9c-1,4.1-2.7,7.5-5.3,10.2   c-4.6,4.7-11.1,7.1-19.5,7.1v3h149.1L762.2,200.8L762.2,200.8z"/>
	<path class="st1" d="M863.7,194.2c-1.5,0.9-3.5,1.4-6.1,1.4c-5.4,0-8.8-3-10.2-8.9c-0.7-2.8-1-8.2-1-16v-46.2   c0-5.9-0.3-10.1-1-12.6c-1.3-4.9-4.7-8.9-10.1-12c-3.8-2.1-8.4-3.8-14-5.1s-11-2-16.1-2c-4.6,0-9.3,0.5-14.1,1.4   c-4.8,1-8.8,2.2-12.1,3.7c-6,2.9-9,6.5-9,10.7c0,2.8,1,5.2,2.9,7.1s4.3,2.8,7.1,2.8c4.3,0,7.3-2,9-5.9l3.1-7.2   c1.3-3.1,3.3-5.5,6-7.2s5.7-2.6,9.1-2.6c2.8,0,5.6,0.6,8.2,1.9c2.6,1.2,4.8,2.9,6.4,5c3.7,4.5,5.5,11.6,5.5,21.3   c0,4.6-0.5,8.2-1.5,10.7c-1,2.6-2.8,4.8-5.5,6.7c-2.3,1.7-5.2,3.2-8.7,4.5c-3.5,1.2-8.8,2.8-16,4.6c-6.2,1.6-10.9,3.1-14.1,4.7   c-3.2,1.5-6.1,3.6-8.6,6.2c-4.4,4.7-6.6,10.4-6.6,17.4c0,7.5,2.7,13.4,8.1,17.9c5.4,4.4,12.6,6.6,21.8,6.6c7.2,0,13.5-1.5,18.9-4.5   c2.8-1.6,7-4.9,12.6-9.9c2.8,4.7,5.4,8.1,8,10c3.9,2.9,8.8,4.4,14.8,4.4c10.7,0,17.6-4.4,20.6-13.1l-2.1-1.2   C866.9,191.4,865.2,193.3,863.7,194.2L863.7,194.2z M827.6,160.4c0,10.6-1.3,18.6-3.9,24.2c-1.8,4.2-4.5,7.6-8.2,10.2   c-3.6,2.5-7.4,3.8-11.5,3.8c-4.6,0-8.5-1.8-11.5-5.4s-4.5-8.1-4.5-13.6c0-6.4,1.9-12,5.9-16.9c1.9-2.3,4-4.3,6.3-6   s6.5-4.1,12.6-7.4c5.4-2.8,10.3-6.1,14.8-9.9L827.6,160.4L827.6,160.4z"/>
	<path class="st1" d="M891.4,25.4l-38.2,5.2v3c7,0,12,2,14.9,6.1c3,4,4.4,10.7,4.4,20v146.4h5c3.2-6.9,7-10.4,11.2-10.4   c1.5,0,3.2,0.4,5.1,1.1l7,2.9c5.5,2.2,12.2,3.2,20.1,3.2c15.1,0,27.4-4.5,37.1-13.6c11.2-10.4,16.7-24.6,16.7-42.6   s-5.8-32-17.5-41.9c-9.4-8.1-20.4-12.1-33-12.1c-8.9,0-16.5,2-22.9,6.1c-3.2,2.1-6.5,5.3-10,9.6v-83   C891.3,25.4,891.4,25.4,891.4,25.4z M895.9,112.4c2-4.7,5.1-8.6,9.2-11.5s8.6-4.4,13.4-4.4c4,0,7.9,1.1,11.7,3.2s7.3,5.2,10.4,9.3   c4,4.9,7,10.9,9.2,17.9c2.2,7,3.2,14.4,3.2,22.3c0,14.9-3.3,27.1-9.9,36.8c-6.6,9.6-14.9,14.5-25.1,14.5c-4.8,0-9.1-1.2-12.9-3.5   c-3.8-2.3-6.6-5.5-8.5-9.6c-1.6-3.4-2.9-8.9-3.9-16.3c-1-7.5-1.5-15.7-1.5-24.6C891.4,130.7,892.9,119.4,895.9,112.4L895.9,112.4   L895.9,112.4z"/>
	<path class="st1" d="M232,72.6c6.5,0,11.7-5.2,11.7-11.7s-5.2-11.7-11.7-11.7s-11.7,5.2-11.7,11.7C220.3,67.3,225.5,72.6,232,72.6   L232,72.6z"/>
	<path class="st0" d="M445,72.6c6.5,0,11.7-5.2,11.7-11.7s-5.2-11.7-11.7-11.7s-11.7,5.2-11.7,11.7C433.3,67.3,438.5,72.6,445,72.6   L445,72.6z"/>
</g>
</svg>