<svg xmlns="http://www.w3.org/2000/svg" width="400" height="53" viewBox="0 0 400 53"><path fill-rule="evenodd" clip-rule="evenodd" fill="#0074BC" d="M56.728 41.666h-10.225c-6.724 0-12.158-5.458-12.158-12.189v-29.477h-4.587c.05 9.841 0 19.135 0 29.477 0 9.244 7.495 16.737 16.745 16.737 3.369 0 7.235.041 10.225 0v-4.548z"/><path fill-rule="evenodd" clip-rule="evenodd" fill="#0074BC" d="M56.728 34.233h-10.267c-2.599 0-4.712-2.144-4.712-4.757v-29.476h-4.538v29.477c0 5.14 4.155 9.29 9.292 9.29h10.225v-4.534z"/><path fill-rule="evenodd" clip-rule="evenodd" fill="#0074BC" d="M0 41.666h10.213c6.737 0 12.188-5.458 12.188-12.189v-29.477h4.511v29.477c0 9.244-7.477 16.737-16.735 16.737-3.325 0-7.232.041-10.176 0v-4.548z"/><path fill-rule="evenodd" clip-rule="evenodd" fill="#0074BC" d="M0 34.233h10.213c2.655 0 4.76-2.144 4.76-4.757v-29.476h4.546c-.042 5.467 0 23.714 0 29.477 0 5.14-4.175 9.29-9.306 9.29h-10.213v-4.534z"/><path fill="#070909" d="M70.844 46.537c-1.801 0-3.445-.279-5.139-.774l.394-3.733c1.249.68 2.866 1.175 4.644 1.175 1.46 0 3.104-.468 3.104-2.01 0-3.418-8.353-1.54-8.353-7.938 0-4.268 3.834-5.582 7.308-5.582 1.668 0 3.259.265 4.542.68l-.314 3.445c-1.201-.551-2.588-.808-3.914-.808-1.224 0-3.105.283-3.105 2.034 0 3.03 8.371 1.302 8.371 7.699 0 4.433-3.649 5.812-7.538 5.812"/><path fill="#070909" d="M86.661 46.537c-3.635 0-4.833-1.82-4.833-4.821v-6.053h-2.637v-3.001h2.688v-2.902l4.178-1.298v4.2h3.205v3.001h-3.205v5.507c0 1.428.338 2.375 1.777 2.375.519 0 1.064-.105 1.479-.239l.162 2.925c-.832.157-1.7.306-2.814.306"/><path fill="#070909" d="M98.058 35.428c-2.219 0-3.157 1.853-3.157 3.888 0 2.081.782 4.152 3.157 4.152 2.374 0 3.207-2.043 3.207-4.152 0-2.036-.986-3.888-3.207-3.888m0 11.109c-4.466 0-7.552-2.84-7.552-7.068 0-4.483 3.272-7.122 7.552-7.122 4.278 0 7.564 2.639 7.564 7.122 0 4.228-3.078 7.068-7.564 7.068"/><path fill="#070909" d="M114.703 46.537c-4.468 0-7.385-2.788-7.385-7.121 0-4.251 2.945-7.069 7.345-7.069 1.394 0 2.567.238 3.586.656l-.312 3.155c-.758-.417-1.564-.654-2.664-.654-2.085 0-3.571 1.54-3.571 3.965 0 2.299 1.565 3.888 3.759 3.888 1.037 0 2.11-.257 2.814-.62l.13 3.229c-1.124.366-2.375.571-3.702.571"/><polygon fill="#070909" points="129.089,46.207 125.042,39.553 124.993,39.553 124.993,46.207 120.762,46.207 120.762,26.632 124.993,26.632 124.993,38.243 125.042,38.243 129.042,32.661 133.787,32.661 128.956,38.819 134.278,46.207"/><path fill="#070909" d="M145.446 46.207v-6.815c0-2.187-.551-3.598-2.218-3.598-2.174 0-2.981 1.879-2.981 4.33v6.083h-4.228v-19.575h4.228v7.986h.053c.968-1.362 2.456-2.271 4.413-2.271 3.498 0 4.928 2.477 4.928 5.376v8.483h-4.195z"/><path fill="#070909" d="M159.507 35.428c-2.217 0-3.155 1.853-3.155 3.888 0 2.081.784 4.152 3.155 4.152 2.374 0 3.208-2.043 3.208-4.152 0-2.036-.994-3.888-3.208-3.888m0 11.109c-4.467 0-7.544-2.84-7.544-7.068 0-4.483 3.265-7.122 7.544-7.122 4.282 0 7.564 2.639 7.564 7.122 0 4.228-3.077 7.068-7.564 7.068"/><rect x="169.633" y="26.632" fill="#070909" width="4.229" height="19.575"/><path fill="#070909" d="M194.775 46.207v-7.598c0-1.415-.341-2.815-1.93-2.815-1.933 0-2.632 1.904-2.632 4.355v6.058h-4.226v-7.598c0-1.415-.34-2.815-1.932-2.815-1.932 0-2.638 1.904-2.638 4.355v6.058h-4.228v-13.546h3.887v2.271h.05c.997-1.828 2.769-2.585 4.57-2.585 1.907 0 3.42.809 4.151 2.533.986-1.752 2.74-2.533 4.562-2.533 3.682 0 4.593 2.245 4.593 5.666v8.193h-4.227z"/><path fill="#070909" d="M206.158 46.537c-1.807 0-3.215-.257-4.542-.646l.226-3.182c1.102.495 2.537.909 4.025.909.939 0 2.06-.236 2.06-1.327 0-2.431-6.415-.73-6.415-5.613 0-3.029 2.867-4.331 5.579-4.331 1.619 0 3.029.238 4.384.68l-.313 3.007c-1.012-.503-2.214-.759-3.438-.759-.998 0-2.142.229-2.142 1.147 0 2.109 6.623.572 6.623 5.607 0 3.42-3.077 4.508-6.047 4.508"/><rect x="221.913" y="26.632" fill="#070909" width="4.23" height="19.575"/><path fill="#070909" d="M236.653 27.232h3.469v3.446h-3.469v-3.446zm-.734 12.814c-1.589-.049-3.26.391-3.26 2.009 0 1.019.886 1.563 2.034 1.563.938 0 1.72-.415 2.247-1.071.545-.671.783-1.536.783-2.449-.368-.027-1.804-.052-1.804-.052m-4.985-12.814h3.471v3.446h-3.471v-3.446zm7.096 18.975c-.079-.732-.101-1.49-.101-2.092h-.053c-.96 1.644-2.451 2.422-4.254 2.422-2.551 0-4.933-1.402-4.933-4.193 0-2.008 1.019-3.156 2.382-3.812 1.4-.681 3.207-.886 4.559-.808 0 0 1.725.053 2.093.103-.025-1.982-1.231-2.552-3.081-2.552-1.515 0-3.003.388-4.254 1.175l-.098-3.107c1.552-.653 3.332-.994 5.135-.994 3.729 0 6.187 1.588 6.187 5.666v3.726c0 .904.05 1.617.078 2.349.022.704.1 1.387.173 2.119h-3.833z"/><path fill="#070909" d="M254.059 46.207v-6.815c0-2.187-.55-3.598-2.219-3.598-2.173 0-2.978 1.879-2.978 4.33v6.083h-4.229v-13.546h3.888v2.246h.061c.986-1.803 2.738-2.56 4.745-2.56 3.497 0 4.928 2.477 4.928 5.376v8.483h-4.196z"/><path fill="#070909" d="M265.431 46.537c-1.803 0-3.207-.257-4.542-.646l.238-3.182c1.097.495 2.524.909 4.017.909.935 0 2.057-.236 2.057-1.327 0-2.431-6.413-.73-6.413-5.613 0-3.029 2.864-4.331 5.58-4.331 1.617 0 3.025.238 4.376.68l-.304 3.007c-1.018-.503-2.219-.759-3.444-.759-.993 0-2.142.229-2.142 1.147 0 2.109 6.628.572 6.628 5.607-.001 3.42-3.081 4.508-6.051 4.508"/><rect x="281.188" y="26.632" fill="#070909" width="4.229" height="19.575"/><path fill="#070909" d="M295.195 40.046c-1.594-.049-3.262.391-3.262 2.009 0 1.019.888 1.563 2.034 1.563.93 0 1.724-.415 2.248-1.071.542-.671.781-1.536.781-2.449-.364-.027-1.801-.052-1.801-.052m2.116 6.161c-.077-.732-.109-1.49-.109-2.092h-.052c-.961 1.644-2.447 2.422-4.254 2.422-2.551 0-4.926-1.402-4.926-4.193 0-2.008 1.013-3.156 2.375-3.812 1.404-.681 3.206-.886 4.553-.808 0 0 1.734.053 2.1.103-.025-1.982-1.225-2.552-3.083-2.552-1.509 0-3.002.388-4.248 1.175l-.104-3.107c1.541-.653 3.333-.994 5.14-.994 3.732 0 6.188 1.588 6.188 5.666v3.726c0 .904.047 1.617.072 2.349.026.704.1 1.387.187 2.119h-3.839z"/><path fill="#070909" d="M313.334 46.207v-6.815c0-2.187-.553-3.598-2.223-3.598-2.162 0-2.978 1.879-2.978 4.33v6.083h-4.221v-13.546h3.892v2.246h.049c.986-1.803 2.741-2.56 4.746-2.56 3.495 0 4.934 2.477 4.934 5.376v8.483h-4.199z"/><path fill="#070909" d="M327.199 35.604c-2.012 0-2.843 1.933-2.843 3.737 0 2.032.883 3.938 2.875 3.938 1.87 0 2.941-1.883 2.941-3.835.001-1.983-1.045-3.84-2.973-3.84m3.264 10.603v-2.069h-.051c-.782 1.44-2.509 2.399-4.467 2.399-4.066 0-5.968-3.386-5.968-7.274 0-3.494 1.827-6.915 5.74-6.915 1.82 0 3.259.564 4.405 2.009h.05v-7.725h4.231v19.575h-3.94z"/><path fill="#070909" d="M341.184 46.537c-1.795 0-3.207-.257-4.534-.646l.229-3.182c1.099.495 2.535.909 4.026.909.934 0 2.057-.236 2.057-1.327 0-2.431-6.422-.73-6.422-5.613 0-3.029 2.874-4.331 5.59-4.331 1.616 0 3.026.238 4.381.68l-.314 3.007c-1.012-.503-2.213-.759-3.446-.759-.986 0-2.135.229-2.135 1.147 0 2.109 6.629.572 6.629 5.607-.002 3.42-3.083 4.508-6.061 4.508"/><path fill="#070909" d="M355.745 46.537c-3.631 0-4.832-1.82-4.832-4.821v-6.053h-2.63v-3.001h2.675v-2.902l4.182-1.298v4.2h3.228v3.001h-3.228v5.507c0 1.428.344 2.375 1.779 2.375.518 0 1.07-.105 1.487-.239l.153 2.925c-.832.157-1.693.306-2.814.306"/><path fill="#070909" d="M360.906 32.661h4.228v13.546h-4.228v-13.546zm0-5.717h4.228v3.421h-4.228v-3.421z"/><path fill="#070909" d="M377.909 46.207v-6.815c0-2.187-.552-3.598-2.218-3.598-2.171 0-2.979 1.879-2.979 4.33v6.083h-4.214v-13.546h3.894v2.246h.041c.986-1.803 2.74-2.56 4.746-2.56 3.498 0 4.925 2.477 4.925 5.376v8.483h-4.195z"/><path fill="#070909" d="M391.556 35.604c-2.004 0-2.849 1.807-2.849 3.738 0 2.006 1.123 3.623 2.774 3.623 1.872 0 3.048-1.617 3.048-3.754 0-1.827-.887-3.607-2.973-3.607m-.679 16.396c-1.907 0-3.624-.365-4.962-.893l.264-3.401c1.281.635 2.688 1.13 4.305 1.13 3.003 0 4.127-1.695 4.127-4.145v-.73h-.056c-.938 1.412-2.504 2.245-4.408 2.245-3.838 0-5.819-2.951-5.819-6.813 0-3.729 1.801-7.046 5.965-7.046 1.888 0 3.428.909 4.42 2.535h.052v-2.22h3.889v12.055c-.002 4.799-2.248 7.283-7.777 7.283"/></svg>
